<?xml version="1.0" encoding="utf-8"?>
<!DOCTYPE svg PUBLIC "-//W3C//DTD SVG 1.1//EN" "http://www.w3.org/Graphics/SVG/1.1/DTD/svg11.dtd">
<svg stroke="white" stroke-width="14px" fill="white" xmlns="http://www.w3.org/2000/svg" xmlns:xlink="http://www.w3.org/1999/xlink" x="0px" y="0px" viewBox="0 0 1000 1000" enable-background="new 0 0 1000 1000" xml:space="preserve">
<g><path d="M500,10C229.4,10,10,229.4,10,500c0,270.6,219.4,490,490,490c270.6,0,490-219.4,490-490C990,229.4,770.6,10,500,10z M500,952.3C250.2,952.3,47.7,749.8,47.7,500C47.7,250.2,250.2,47.7,500,47.7c249.8,0,452.3,202.5,452.3,452.3S749.8,952.3,500,952.3z M438.8,299.2c-3.5-4-8.5-6.5-14.2-6.5c-4.1,0-7.9,1.3-11,3.6c-0.9,0.6-1.8,1.3-2.6,2.1c-4.6,4.7-6.4,11.1-5.2,17.1V685c-1.2,6,0.6,12.5,5.2,17.1c7.4,7.5,19.5,7.5,26.9,0l244.8-188.1c3.8-3.8,5.6-8.8,5.6-13.8c0.1-5-1.8-10-5.6-13.8L438.8,299.2z M443.5,650.2V350.4l195.1,149.9L443.5,650.2z"/></g>
</svg>